<svg xmlns="http://www.w3.org/2000/svg" xmlns:xlink="http://www.w3.org/1999/xlink" width="480" zoomAndPan="magnify" viewBox="0 0 360 225" height="300" preserveAspectRatio="xMidYMid meet" version="1.0"><defs><clipPath id="f3cbab8fe0"><path d="M 222.351562 0 L 360 0 L 360 119 L 222.351562 119 Z M 222.351562 0 " clip-rule="nonzero"/></clipPath></defs><rect x="-36" width="432" fill="#ffffff" y="-22.5" height="270" fill-opacity="1"/><rect x="-36" width="432" fill="#ffffff" y="-22.5" height="270" fill-opacity="1"/><rect x="-36" width="432" fill="#212121" y="-22.5" height="270" fill-opacity="1"/><g clip-path="url(#f3cbab8fe0)"><path fill="#ffffff" d="M 222.34375 116.847656 L 414.6875 -73.75 L 224.089844 118.59375 Z M 222.34375 116.847656 " fill-opacity="1" fill-rule="nonzero"/></g><path fill="#ffffff" d="M 224.800781 119.304688 L 417.144531 -71.296875 L 226.546875 121.050781 Z M 224.800781 119.304688 " fill-opacity="1" fill-rule="nonzero"/><path fill="#ffffff" d="M 227.253906 121.761719 L 419.601562 -68.839844 L 229 123.507812 Z M 227.253906 121.761719 " fill-opacity="1" fill-rule="nonzero"/><path fill="#ffffff" d="M 229.710938 124.21875 L 422.054688 -66.382812 L 231.457031 125.964844 Z M 229.710938 124.21875 " fill-opacity="1" fill-rule="nonzero"/><path fill="#ffffff" d="M 232.167969 126.675781 L 424.515625 -63.925781 L 233.914062 128.417969 Z M 232.167969 126.675781 " fill-opacity="1" fill-rule="nonzero"/><path fill="#ffffff" d="M 234.625 129.128906 L 426.96875 -61.46875 L 236.371094 130.875 Z M 234.625 129.128906 " fill-opacity="1" fill-rule="nonzero"/><path fill="#ffffff" d="M 237.082031 131.585938 L 429.425781 -59.011719 L 238.824219 133.332031 Z M 237.082031 131.585938 " fill-opacity="1" fill-rule="nonzero"/><path fill="#ffffff" d="M 239.535156 134.042969 L 431.882812 -56.554688 L 241.285156 135.789062 Z M 239.535156 134.042969 " fill-opacity="1" fill-rule="nonzero"/><path fill="#ffffff" d="M 241.996094 136.5 L 434.339844 -54.101562 L 243.738281 138.246094 Z M 241.996094 136.5 " fill-opacity="1" fill-rule="nonzero"/><path fill="#ffffff" d="M 244.449219 138.953125 L 436.796875 -51.644531 L 246.195312 140.699219 Z M 244.449219 138.953125 " fill-opacity="1" fill-rule="nonzero"/><path fill="#ffffff" d="M 246.90625 141.410156 L 439.25 -49.1875 L 248.652344 143.15625 Z M 246.90625 141.410156 " fill-opacity="1" fill-rule="nonzero"/><path fill="#ffffff" d="M 249.363281 143.867188 L 441.707031 -46.730469 L 251.109375 145.613281 Z M 249.363281 143.867188 " fill-opacity="1" fill-rule="nonzero"/><path fill="#ffffff" d="M 251.820312 146.324219 L 444.164062 -44.277344 L 253.566406 148.070312 Z M 251.820312 146.324219 " fill-opacity="1" fill-rule="nonzero"/><path fill="#ffffff" d="M 254.273438 148.78125 L 446.621094 -41.820312 L 256.019531 150.527344 Z M 254.273438 148.78125 " fill-opacity="1" fill-rule="nonzero"/><path fill="#ffffff" d="M 256.730469 151.238281 L 449.074219 -39.363281 L 258.476562 152.984375 Z M 256.730469 151.238281 " fill-opacity="1" fill-rule="nonzero"/><path fill="#ffffff" d="M 259.1875 153.691406 L 451.53125 -36.90625 L 260.933594 155.4375 Z M 259.1875 153.691406 " fill-opacity="1" fill-rule="nonzero"/><path fill="#ffffff" d="M 261.644531 156.148438 L 453.988281 -34.449219 L 263.390625 157.894531 Z M 261.644531 156.148438 " fill-opacity="1" fill-rule="nonzero"/><path fill="#ffffff" d="M 264.101562 158.605469 L 456.445312 -31.992188 L 265.84375 160.351562 Z M 264.101562 158.605469 " fill-opacity="1" fill-rule="nonzero"/><path fill="#ffffff" d="M 266.554688 161.0625 L 458.902344 -29.539062 L 268.300781 162.808594 Z M 266.554688 161.0625 " fill-opacity="1" fill-rule="nonzero"/><path fill="#ffffff" d="M 269.011719 163.519531 L 461.359375 -27.082031 L 270.757812 165.265625 Z M 269.011719 163.519531 " fill-opacity="1" fill-rule="nonzero"/><path fill="#ffffff" d="M 271.46875 165.972656 L 463.816406 -24.625 L 273.214844 167.71875 Z M 271.46875 165.972656 " fill-opacity="1" fill-rule="nonzero"/><path fill="#ffffff" d="M 273.925781 168.429688 L 466.269531 -22.167969 L 275.671875 170.175781 Z M 273.925781 168.429688 " fill-opacity="1" fill-rule="nonzero"/><path fill="#ffffff" d="M 276.382812 170.886719 L 468.726562 -19.710938 L 278.128906 172.632812 Z M 276.382812 170.886719 " fill-opacity="1" fill-rule="nonzero"/><path fill="#ffffff" d="M 278.839844 173.34375 L 471.183594 -17.257812 L 280.585938 175.089844 Z M 278.839844 173.34375 " fill-opacity="1" fill-rule="nonzero"/><path fill="#ffffff" d="M 281.292969 175.800781 L 473.640625 -14.800781 L 283.039062 177.542969 Z M 281.292969 175.800781 " fill-opacity="1" fill-rule="nonzero"/><path fill="#ffffff" d="M 535.304688 46.867188 L 342.960938 237.464844 L 533.558594 45.121094 Z M 535.304688 46.867188 " fill-opacity="1" fill-rule="nonzero"/><path fill="#ffffff" d="M 532.851562 44.410156 L 340.503906 235.007812 L 531.101562 42.664062 Z M 532.851562 44.410156 " fill-opacity="1" fill-rule="nonzero"/><path fill="#ffffff" d="M 530.390625 41.953125 L 338.046875 232.554688 L 528.648438 40.207031 Z M 530.390625 41.953125 " fill-opacity="1" fill-rule="nonzero"/><path fill="#ffffff" d="M 527.9375 39.496094 L 335.589844 230.097656 L 526.191406 37.75 Z M 527.9375 39.496094 " fill-opacity="1" fill-rule="nonzero"/><path fill="#ffffff" d="M 525.480469 37.039062 L 333.136719 227.640625 L 523.734375 35.292969 Z M 525.480469 37.039062 " fill-opacity="1" fill-rule="nonzero"/><path fill="#ffffff" d="M 523.023438 34.585938 L 330.679688 225.183594 L 521.277344 32.839844 Z M 523.023438 34.585938 " fill-opacity="1" fill-rule="nonzero"/><path fill="#ffffff" d="M 520.566406 32.128906 L 328.222656 222.726562 L 518.820312 30.382812 Z M 520.566406 32.128906 " fill-opacity="1" fill-rule="nonzero"/><path fill="#ffffff" d="M 518.113281 29.671875 L 325.765625 220.269531 L 516.367188 27.925781 Z M 518.113281 29.671875 " fill-opacity="1" fill-rule="nonzero"/><path fill="#ffffff" d="M 515.65625 27.214844 L 323.308594 217.816406 L 513.910156 25.46875 Z M 515.65625 27.214844 " fill-opacity="1" fill-rule="nonzero"/><path fill="#ffffff" d="M 513.199219 24.757812 L 320.855469 215.359375 L 511.453125 23.015625 Z M 513.199219 24.757812 " fill-opacity="1" fill-rule="nonzero"/><path fill="#ffffff" d="M 510.742188 22.304688 L 318.398438 212.902344 L 508.996094 20.558594 Z M 510.742188 22.304688 " fill-opacity="1" fill-rule="nonzero"/><path fill="#ffffff" d="M 508.285156 19.847656 L 315.941406 210.445312 L 506.539062 18.101562 Z M 508.285156 19.847656 " fill-opacity="1" fill-rule="nonzero"/><path fill="#ffffff" d="M 505.832031 17.390625 L 313.484375 207.988281 L 504.085938 15.644531 Z M 505.832031 17.390625 " fill-opacity="1" fill-rule="nonzero"/><path fill="#ffffff" d="M 503.375 14.933594 L 311.027344 205.535156 L 501.628906 13.1875 Z M 503.375 14.933594 " fill-opacity="1" fill-rule="nonzero"/><path fill="#ffffff" d="M 500.917969 12.480469 L 308.570312 203.078125 L 499.171875 10.730469 Z M 500.917969 12.480469 " fill-opacity="1" fill-rule="nonzero"/><path fill="#ffffff" d="M 498.460938 10.019531 L 306.117188 200.621094 L 496.714844 8.277344 Z M 498.460938 10.019531 " fill-opacity="1" fill-rule="nonzero"/><path fill="#ffffff" d="M 496.003906 7.566406 L 303.660156 198.164062 L 494.257812 5.820312 Z M 496.003906 7.566406 " fill-opacity="1" fill-rule="nonzero"/><path fill="#ffffff" d="M 493.546875 5.109375 L 301.203125 195.710938 L 491.800781 3.363281 Z M 493.546875 5.109375 " fill-opacity="1" fill-rule="nonzero"/><path fill="#ffffff" d="M 491.09375 2.652344 L 298.746094 193.25 L 489.347656 0.90625 Z M 491.09375 2.652344 " fill-opacity="1" fill-rule="nonzero"/><path fill="#ffffff" d="M 488.636719 0.195312 L 296.289062 190.796875 L 486.890625 -1.550781 Z M 488.636719 0.195312 " fill-opacity="1" fill-rule="nonzero"/><path fill="#ffffff" d="M 486.179688 -2.257812 L 293.835938 188.339844 L 484.433594 -4.003906 Z M 486.179688 -2.257812 " fill-opacity="1" fill-rule="nonzero"/><path fill="#ffffff" d="M 483.722656 -4.714844 L 291.378906 185.882812 L 481.976562 -6.460938 Z M 483.722656 -4.714844 " fill-opacity="1" fill-rule="nonzero"/><path fill="#ffffff" d="M 481.265625 -7.171875 L 288.921875 183.425781 L 479.523438 -8.917969 Z M 481.265625 -7.171875 " fill-opacity="1" fill-rule="nonzero"/><path fill="#ffffff" d="M 478.8125 -9.628906 L 286.464844 180.96875 L 477.066406 -11.375 Z M 478.8125 -9.628906 " fill-opacity="1" fill-rule="nonzero"/><path fill="#ffffff" d="M 476.355469 -12.085938 L 284.007812 178.515625 L 474.609375 -13.832031 Z M 476.355469 -12.085938 " fill-opacity="1" fill-rule="nonzero"/><path fill="#ffffff" d="M 343.808594 238.3125 L 536.152344 47.710938 L 345.554688 240.058594 Z M 343.808594 238.3125 " fill-opacity="1" fill-rule="nonzero"/><path fill="#ffffff" d="M 346.261719 240.765625 L 538.609375 50.167969 L 348.007812 242.515625 Z M 346.261719 240.765625 " fill-opacity="1" fill-rule="nonzero"/><path fill="#ffffff" d="M 348.71875 243.226562 L 541.0625 52.625 L 350.464844 244.972656 Z M 348.71875 243.226562 " fill-opacity="1" fill-rule="nonzero"/><path fill="#ffffff" d="M 351.175781 245.679688 L 543.519531 55.082031 L 352.921875 247.425781 Z M 351.175781 245.679688 " fill-opacity="1" fill-rule="nonzero"/><path fill="#ffffff" d="M 353.632812 248.136719 L 545.976562 57.535156 L 355.378906 249.882812 Z M 353.632812 248.136719 " fill-opacity="1" fill-rule="nonzero"/><path fill="#ffffff" d="M 356.085938 250.59375 L 548.433594 59.996094 L 357.832031 252.339844 Z M 356.085938 250.59375 " fill-opacity="1" fill-rule="nonzero"/><path fill="#ffffff" d="M 358.542969 253.050781 L 550.890625 62.449219 L 360.289062 254.796875 Z M 358.542969 253.050781 " fill-opacity="1" fill-rule="nonzero"/></svg>